<svg width="75" height="76" viewBox="0 0 75 76" fill="none" xmlns="http://www.w3.org/2000/svg">
<path d="M9.375 69.27H65.6261" stroke="#11253E" stroke-width="4" stroke-linecap="round" stroke-linejoin="round"/>
<path d="M9.375 34.8947C9.375 31.9483 9.375 30.4751 10.2903 29.5598C11.2056 28.6445 12.6788 28.6445 15.6251 28.6445C18.5715 28.6445 20.0446 28.6445 20.9599 29.5598C21.8752 30.4751 21.8752 31.9483 21.8752 34.8947V53.645C21.8752 56.5914 21.8752 58.0645 20.9599 58.9798C20.0446 59.8951 18.5715 59.8951 15.6251 59.8951C12.6788 59.8951 11.2056 59.8951 10.2903 58.9798C9.375 58.0645 9.375 56.5914 9.375 53.645V34.8947Z" stroke="#11253E" stroke-width="4"/>
<path d="M31.25 22.3937C31.25 19.4473 31.25 17.9742 32.1653 17.0589C33.0806 16.1436 34.5538 16.1436 37.5001 16.1436C40.4465 16.1436 41.9196 16.1436 42.8349 17.0589C43.7502 17.9742 43.7502 19.4473 43.7502 22.3937V53.6443C43.7502 56.5906 43.7502 58.0638 42.8349 58.9791C41.9196 59.8944 40.4465 59.8944 37.5001 59.8944C34.5538 59.8944 33.0806 59.8944 32.1653 58.9791C31.25 58.0638 31.25 56.5906 31.25 53.6443V22.3937Z" stroke="#11253E" stroke-width="4"/>
<path d="M53.125 13.0187C53.125 10.0723 53.125 8.59917 54.0403 7.68386C54.9556 6.76855 56.4288 6.76855 59.3751 6.76855C62.3215 6.76855 63.7946 6.76855 64.7099 7.68386C65.6252 8.59917 65.6252 10.0723 65.6252 13.0187V53.6445C65.6252 56.5908 65.6252 58.064 64.7099 58.9793C63.7946 59.8946 62.3215 59.8946 59.3751 59.8946C56.4288 59.8946 54.9556 59.8946 54.0403 58.9793C53.125 58.064 53.125 56.5908 53.125 53.6445V13.0187Z" stroke="#FEBE10" stroke-width="4"/>
</svg>
