<svg width="75" height="75" viewBox="0 0 75 75" fill="none" xmlns="http://www.w3.org/2000/svg">
<path d="M67.163 67.1733H37.4917C23.5045 67.1733 16.5108 67.1733 12.1656 62.828C7.82031 58.4827 7.82031 51.4891 7.82031 37.5019V7.83057" stroke="#11253E" stroke-width="4" stroke-linecap="round"/>
<path d="M59.3659 21.8774L49.6225 34.1469C48.13 36.0263 47.3838 36.966 46.5271 37.424C45.2098 38.1282 43.6359 38.1624 42.2892 37.5162C41.4134 37.0959 40.627 36.1895 39.0542 34.3768C37.4815 32.5641 36.6951 31.6578 35.8193 31.2375C34.4727 30.5913 32.8987 30.6255 31.5815 31.3296C30.7248 31.7876 29.9786 32.7273 28.4861 34.6067L18.7422 46.8763" stroke="#FEBE10" stroke-width="4" stroke-linecap="round"/>
</svg>
