<svg width="76" height="76" viewBox="0 0 76 76" fill="none" xmlns="http://www.w3.org/2000/svg">
<path d="M67.4208 67.6927H37.7475C23.7594 67.6927 16.7653 67.6927 12.4198 63.3472C8.07422 59.0016 8.07422 52.0076 8.07422 38.0195V8.34619" stroke="#5C5B5A" stroke-width="4" stroke-linecap="round"/>
<path d="M63.2018 53.9507L52.911 38.295C51.354 35.9262 47.9143 35.831 46.2285 38.1099V38.1099C44.3612 40.6343 40.4607 40.1877 39.2122 37.3066L38.0706 34.6723C37.8753 34.2214 37.7776 33.996 37.7022 33.8539C36.2672 31.1471 32.4757 30.9201 30.7279 33.4363C30.6361 33.5684 30.5122 33.7806 30.2645 34.2049V34.2049C30.0025 34.6535 29.8715 34.8778 29.7774 35.0129C27.976 37.5961 24.0536 37.2605 22.7173 34.4088C22.6474 34.2598 22.5565 34.0164 22.3745 33.5298L15.7617 15.8438" stroke="#C9C9C8" stroke-width="4" stroke-linecap="round"/>
</svg>
