<svg width="76" height="76" viewBox="0 0 76 76" fill="none" xmlns="http://www.w3.org/2000/svg">
<path d="M38.0156 25.6602V38.1606L45.8284 45.9733" stroke="#FEBE10" stroke-width="4" stroke-linecap="round" stroke-linejoin="round"/>
<path d="M18.0288 18.1719L16.6146 16.7577L18.0288 18.1719ZM14.0713 22.1295L12.0713 22.1395C12.0768 23.2362 12.9645 24.1239 14.0612 24.1294L14.0713 22.1295ZM22.0163 24.1694C23.1209 24.175 24.0208 23.284 24.0263 22.1795C24.0319 21.0749 23.141 20.175 22.0364 20.1695L22.0163 24.1694ZM16.0313 14.1643C16.0257 13.0597 15.1258 12.1688 14.0212 12.1744C12.9167 12.1799 12.0258 13.0798 12.0313 14.1844L16.0313 14.1643ZM12.1332 34.3157C12.2832 33.2213 11.5177 32.2126 10.4233 32.0626C9.329 31.9126 8.32027 32.6781 8.17027 33.7725L12.1332 34.3157ZM59.2186 16.9576C47.4121 5.15104 28.3376 5.03475 16.6146 16.7577L19.443 19.5861C29.5772 9.452 46.1189 9.51469 56.3902 19.786L59.2186 16.9576ZM16.8145 59.3617C28.621 71.1682 47.6955 71.2845 59.4185 59.5615L56.59 56.7331C46.4559 66.8672 29.9142 66.8045 19.6429 56.5332L16.8145 59.3617ZM59.4185 59.5615C71.1414 47.8386 71.0251 28.7641 59.2186 16.9576L56.3902 19.786C66.6615 30.0573 66.7241 46.599 56.59 56.7331L59.4185 59.5615ZM16.6146 16.7577L12.6571 20.7152L15.4855 23.5437L19.443 19.5861L16.6146 16.7577ZM14.0612 24.1294L22.0163 24.1694L22.0364 20.1695L14.0813 20.1295L14.0612 24.1294ZM16.0712 22.1194L16.0313 14.1643L12.0313 14.1844L12.0713 22.1395L16.0712 22.1194ZM8.17027 33.7725C6.92984 42.8221 9.81842 52.3656 16.8145 59.3617L19.6429 56.5332C13.5622 50.4526 11.0567 42.1697 12.1332 34.3157L8.17027 33.7725Z" fill="#11253E"/>
</svg>
