<svg width="75" height="76" viewBox="0 0 75 76" fill="none" xmlns="http://www.w3.org/2000/svg">
<path d="M51.2929 56.3605C50.6414 58.3557 49.4958 60.1608 47.9554 61.6035C45.6701 63.7439 42.1465 64.688 35.0994 66.5763C28.0523 68.4646 24.5287 69.4087 21.4794 68.6977C19.0717 68.1363 16.8846 66.8736 15.1946 65.0692C13.0542 62.7839 12.11 59.2603 10.2218 52.2132L8.60416 46.1762C6.71588 39.129 5.77175 35.6055 6.48274 32.5562C7.04414 30.1485 8.30688 27.9613 10.1113 26.2713C12.3966 24.1309 15.9201 23.1868 22.9673 21.2985C24.3005 20.9413 25.5076 20.6178 26.6092 20.333" stroke="#FEBE10" stroke-width="4"/>
<path d="M63.466 39.7146L65.0836 33.6776C66.9719 26.6305 67.916 23.1069 67.205 20.0576C66.6436 17.6499 65.3809 15.4628 63.5765 13.7728C61.2912 11.6324 57.7676 10.6882 50.7205 8.79996C43.6734 6.91169 40.1498 5.96755 37.1005 6.67854C34.6928 7.23994 32.5057 8.50268 30.8157 10.3071C28.9831 12.2637 28.0274 15.1281 26.6053 20.3344C26.3665 21.2089 26.1145 22.1493 25.843 23.1627L25.8429 23.1631L24.2253 29.2001C22.337 36.2472 21.3928 39.7708 22.1038 42.8201C22.6652 45.2278 23.928 47.4149 25.7324 49.1049C28.0177 51.2453 31.5412 52.1895 38.5883 54.0777L38.5884 54.0777L38.5884 54.0777C44.9402 55.7797 48.4295 56.7146 51.289 56.3619C51.602 56.3233 51.9075 56.2693 52.2083 56.1991C54.616 55.6377 56.8032 54.375 58.4932 52.5706C60.6336 50.2853 61.5777 46.7617 63.466 39.7146Z" stroke="#1C274C" stroke-width="4"/>
<path d="M36.7969 31.4419L51.8887 35.4857" stroke="#1C274C" stroke-width="4" stroke-linecap="round"/>
<path d="M34.3633 40.4966L43.4179 42.9228" stroke="#1C274C" stroke-width="4" stroke-linecap="round"/>
</svg>
