<svg width="76" height="76" viewBox="0 0 76 76" fill="none" xmlns="http://www.w3.org/2000/svg">
<path d="M58.4991 18.5972C59.2817 17.2485 61.3116 17.5556 61.6602 19.0754L63.185 25.7221C63.2914 26.1861 63.5856 26.5851 63.9974 26.8241L69.8954 30.2469C71.2441 31.0295 70.937 33.0593 69.4172 33.408L62.7705 34.9328C62.3065 35.0392 61.9075 35.3334 61.6685 35.7451L58.2458 41.6432C57.4631 42.9919 55.4333 42.6848 55.0846 41.1649L53.5598 34.5183C53.4534 34.0543 53.1592 33.6552 52.7475 33.4163L46.8494 29.9935C45.5007 29.2109 45.8078 27.181 47.3277 26.8324L53.9743 25.3076C54.4383 25.2012 54.8374 24.907 55.0763 24.4952L58.4991 18.5972Z" stroke="#FEBE10" stroke-width="4"/>
<path d="M20.043 24.1172L35.3051 23.6488" stroke="#11253E" stroke-width="4.46043" stroke-linecap="round"/>
<path d="M20.4805 38.3838L31.891 38.0336" stroke="#11253E" stroke-width="4.46043" stroke-linecap="round"/>
<path d="M20.918 52.6504L43.7403 51.95" stroke="#11253E" stroke-width="4.46043" stroke-linecap="round"/>
<path d="M54.8356 11.0654C51.2465 7.69008 45.6421 7.86207 34.4331 8.20605L28.4887 8.38847C17.2797 8.73245 11.6753 8.90444 8.29997 12.4935C4.92466 16.0825 5.09665 21.687 5.44063 32.8959L5.80548 44.7848C6.14946 55.9937 6.32145 61.5982 9.91048 64.9735C13.4995 68.3488 19.104 68.1768 30.3129 67.8328L36.2574 67.6504C47.4663 67.3064 53.0708 67.1344 56.4461 63.5454C59.1631 60.6563 59.5816 56.4613 59.462 49.0882" stroke="#11253E" stroke-width="4" stroke-linecap="round"/>
</svg>
