<svg width="75" height="76" viewBox="0 0 75 76" fill="none" xmlns="http://www.w3.org/2000/svg">
<path d="M26.5585 35.2915V44.6663M21.8711 39.9789L31.2458 39.9789" stroke="#FEBE10" stroke-width="4" stroke-linecap="round"/>
<path d="M37.5 22.7926V19.6677C37.5 17.9419 38.8991 16.5428 40.6249 16.5428H43.7498C45.4757 16.5428 46.8748 15.1437 46.8748 13.4179V10.293" stroke="#FEBE10" stroke-width="4" stroke-linecap="round"/>
<path d="M50.0041 35.6378C50.0041 37.2364 48.7081 38.5324 47.1095 38.5324C45.5108 38.5324 44.2148 37.2364 44.2148 35.6378C44.2148 34.0391 45.5108 32.7432 47.1095 32.7432C48.7081 32.7432 50.0041 34.0391 50.0041 35.6378Z" fill="#FEBE10"/>
<path d="M55.7933 44.3216C55.7933 45.9203 54.4973 47.2162 52.8987 47.2162C51.3 47.2162 50.0041 45.9203 50.0041 44.3216C50.0041 42.723 51.3 41.427 52.8987 41.427C54.4973 41.427 55.7933 42.723 55.7933 44.3216Z" fill="#FEBE10"/>
<path d="M68.5014 55.2186L65.1114 41.1055C63.1951 33.1278 62.2369 29.1389 59.519 26.5227C58.8311 25.8606 58.0709 25.2738 57.2518 24.7727C54.0155 22.7925 49.8063 22.7925 41.3878 22.7925H33.6183C25.1999 22.7925 20.9907 22.7925 17.7544 24.7727C16.9353 25.2738 16.1751 25.8606 15.4872 26.5227C12.7693 29.1389 11.8111 33.1277 9.89484 41.1055L6.50481 55.2186C5.31312 60.1798 8.48088 65.1415 13.5791 66.2992C17.8785 67.2755 22.301 65.2331 24.2429 61.3746L24.6429 60.5799C26.4259 57.0371 30.1258 54.7913 34.1793 54.7913H40.8269C44.8804 54.7913 48.5803 57.0371 50.3633 60.5799L50.7633 61.3746C52.7052 65.2331 57.1277 67.2755 61.427 66.2992C66.5253 65.1415 69.6931 60.1798 68.5014 55.2186Z" stroke="#11253E" stroke-width="4"/>
</svg>
