<svg width="252" height="114" viewBox="0 0 252 114" fill="none" xmlns="http://www.w3.org/2000/svg">
<path d="M56.9757 88.4459C74.5221 88.4459 88.7462 74.2218 88.7462 56.6754C88.7462 39.129 74.5221 24.9048 56.9757 24.9048C39.4292 24.9048 25.2051 39.129 25.2051 56.6754C25.2051 74.2218 39.4292 88.4459 56.9757 88.4459Z" fill="#FEBE10"/>
<path d="M67.3125 62.603C66.0061 64.8778 63.9856 66.658 61.5645 67.6676C59.1433 68.6772 56.4567 68.8597 53.9212 68.187C51.3858 67.5142 49.1431 66.0237 47.5409 63.9466C45.9388 61.8695 45.0667 59.3218 45.0599 56.6986C45.0531 54.0754 45.912 51.5232 47.5034 49.4378C49.0947 47.3525 51.3297 45.8504 53.8616 45.1645C56.3936 44.4786 59.0811 44.6473 61.5075 45.6443C63.9338 46.6413 65.9634 48.4111 67.2816 50.679L74.0741 46.5356C71.8421 42.7791 68.4331 39.8639 64.3757 38.242C60.3182 36.6201 55.8391 36.3821 51.6326 37.565C47.4262 38.7478 43.7275 41.2854 41.11 44.7843C38.4926 48.2832 37.1025 52.5479 37.1555 56.9171C37.2085 61.2864 38.7015 65.5162 41.403 68.9506C44.1045 72.385 47.8636 74.8321 52.0975 75.9127C56.3314 76.9932 60.8035 76.6467 64.8204 74.927C68.8373 73.2072 72.1747 70.2102 74.315 66.4007L67.3125 62.603Z" fill="white"/>
<path d="M101.905 59.1455C101.905 52.4023 107.87 46.7584 114.873 46.7584C116.622 46.7358 118.356 47.084 119.961 47.78C121.566 48.4761 123.006 49.5043 124.185 50.7968L119.77 54.6254C119.141 53.9402 118.378 53.3916 117.528 53.0135C116.678 52.6353 115.76 52.4357 114.83 52.427C111.347 52.427 108.408 55.5146 108.408 59.1208C108.408 62.8258 111.347 65.9566 114.879 65.9566C115.824 65.9315 116.754 65.7156 117.614 65.3219C118.473 64.9282 119.244 64.3648 119.881 63.6656L124.327 67.4262C123.134 68.7605 121.669 69.8235 120.031 70.5436C118.393 71.2637 116.619 71.6241 114.83 71.6005C107.827 71.6005 101.905 65.938 101.905 59.1455Z" fill="#231F20"/>
<path d="M125.395 59.1449C125.395 52.4018 131.311 46.7578 138.363 46.7578C145.414 46.7578 151.262 52.4265 151.262 59.1449C151.262 65.8634 145.39 71.5753 138.369 71.5753C131.348 71.5753 125.395 65.9375 125.395 59.1449ZM144.89 59.1449C144.84 57.8625 144.414 56.623 143.665 55.5809C142.916 54.5388 141.876 53.7403 140.677 53.2847C139.477 52.8291 138.169 52.7366 136.917 53.0188C135.665 53.301 134.524 53.9454 133.636 54.8717C132.747 55.7979 132.151 56.9651 131.921 58.2278C131.692 59.4905 131.839 60.7929 132.344 61.9727C132.849 63.1525 133.69 64.1575 134.763 64.8625C135.835 65.5675 137.092 65.9414 138.375 65.9375C141.907 65.9375 144.89 62.85 144.89 59.1449Z" fill="#231F20"/>
<path d="M175.673 56.8726V71.0752H169.201V68.6916C168.306 69.6362 167.223 70.3845 166.023 70.8894C164.823 71.3943 163.532 71.6447 162.23 71.6248C157.185 71.6248 153.282 68.599 153.282 64.0542C153.282 59.3735 157.642 56.1625 163.162 56.1625C165.236 56.1891 167.287 56.5951 169.214 57.3604V56.8973C169.214 54.3779 167.658 52.1734 163.755 52.1734C161.601 52.2427 159.495 52.8249 157.611 53.8715L155.363 49.4193C158.407 47.7691 161.8 46.8694 165.262 46.7949C171.449 46.7949 175.673 50.679 175.673 56.8726ZM169.201 63.5725V61.368C167.568 60.786 165.847 60.4914 164.113 60.4973C161.68 60.4973 159.754 61.9176 159.754 63.8442C159.754 65.7708 161.452 66.9688 163.743 66.9688C166.312 66.9688 168.745 65.7708 169.201 63.5725Z" fill="#231F20"/>
<path d="M178.834 59.1455C178.834 52.4023 184.799 46.7584 191.802 46.7584C193.551 46.7358 195.285 47.084 196.89 47.78C198.495 48.4761 199.935 49.5043 201.114 50.7968L196.661 54.6007C196.036 53.9193 195.278 53.3729 194.434 52.9949C193.589 52.6169 192.677 52.4152 191.752 52.4023C188.269 52.4023 185.33 55.4899 185.33 59.0961C185.33 62.8011 188.269 65.9319 191.802 65.9319C192.747 65.9067 193.677 65.6909 194.536 65.2972C195.396 64.9035 196.167 64.3401 196.803 63.6409L201.249 67.4015C200.057 68.7358 198.592 69.7988 196.954 70.5189C195.315 71.239 193.542 71.5994 191.752 71.5758C184.756 71.6005 178.834 65.938 178.834 59.1455Z" fill="#231F20"/>
<path d="M226.684 55.9581V71.0499H220.213V57.3784C220.213 54.439 218.36 52.4383 215.717 52.4383C212.92 52.4383 210.777 54.4514 210.777 57.0264V71.0622H204.065V38.9829H210.765V50.2215C211.593 49.1272 212.669 48.2457 213.905 47.6497C215.141 47.0538 216.501 46.7606 217.872 46.7943C223.01 46.7943 226.684 50.5858 226.684 55.9581Z" fill="#231F20"/>
</svg>
