<svg width="76" height="76" viewBox="0 0 76 76" fill="none" xmlns="http://www.w3.org/2000/svg">
<circle cx="35.344" cy="19.2683" r="12.5002" stroke="#5C5B5A" stroke-width="4"/>
<path d="M60.3486 55.2063C60.3486 62.973 60.3486 69.2691 35.3481 69.2691C10.3477 69.2691 10.3477 62.973 10.3477 55.2063C10.3477 47.4397 21.5408 41.1436 35.3481 41.1436C49.1555 41.1436 60.3486 47.4397 60.3486 55.2063Z" stroke="#C9C9C8" stroke-width="4"/>
<path d="M58.7834 31.6448C58.5945 31.6448 58.4413 31.4916 58.4413 31.3027C58.448 30.1288 58.552 29.1931 58.7532 28.4956C58.9612 27.798 59.263 27.2345 59.6587 26.8052C60.0545 26.376 60.5307 25.9869 61.0875 25.6381C61.5033 25.3698 61.8756 25.0915 62.2043 24.803C62.5329 24.5146 62.7945 24.196 62.9891 23.8472C63.1836 23.4917 63.2808 23.096 63.2808 22.66C63.2808 22.1971 63.1702 21.7913 62.9488 21.4425C62.7275 21.0938 62.429 20.8254 62.0533 20.6376C61.6844 20.4498 61.2753 20.3559 60.8259 20.3559C60.3899 20.3559 59.9774 20.4532 59.5883 20.6477C59.1993 20.8355 58.8807 21.1172 58.6325 21.4929C58.1793 22.1665 57.5871 22.8713 56.7752 22.8713H56.2407C55.0809 22.8713 54.0945 21.8896 54.4684 20.7917C54.6236 20.3356 54.8312 19.9221 55.0909 19.551C55.7013 18.6723 56.5095 18.0183 57.5157 17.589C58.5218 17.1531 59.6319 16.9351 60.846 16.9351C62.1808 16.9351 63.3613 17.1564 64.3876 17.5991C65.4138 18.0351 66.2188 18.669 66.8023 19.5007C67.3859 20.3324 67.6776 21.3352 67.6776 22.509C67.6776 23.2938 67.5468 23.9914 67.2853 24.6018C67.0304 25.2055 66.6715 25.7421 66.2087 26.2116C65.7459 26.6744 65.1992 27.0937 64.5687 27.4693C64.0388 27.7846 63.6028 28.1132 63.2607 28.4553C62.9253 28.7974 62.6738 29.1931 62.5061 29.6425C62.3451 30.092 62.2613 30.6453 62.2546 31.3027C62.2546 31.4916 62.1014 31.6448 61.9125 31.6448H58.7834ZM60.4335 38.084C59.7627 38.084 59.1892 37.8493 58.713 37.3797C58.2434 36.9035 58.012 36.3334 58.0187 35.6693C58.012 35.012 58.2434 34.4485 58.713 33.979C59.1892 33.5095 59.7627 33.2747 60.4335 33.2747C61.0707 33.2747 61.6308 33.5095 62.1137 33.979C62.5967 34.4485 62.8415 35.012 62.8482 35.6693C62.8415 36.112 62.7241 36.5178 62.496 36.8867C62.2747 37.2489 61.9829 37.5407 61.6207 37.7621C61.2585 37.9767 60.8628 38.084 60.4335 38.084Z" fill="#5C5B5A"/>
</svg>
