<svg width="76" height="76" viewBox="0 0 76 76" fill="none" xmlns="http://www.w3.org/2000/svg">
<path d="M57.8413 60.277L59.2555 61.6912H59.2555L57.8413 60.277ZM32.4044 60.277L33.8186 58.8627L32.4044 60.277ZM59.961 32.7203L58.5468 34.1345L59.961 32.7203ZM59.961 58.1572L58.5468 56.743V56.743L59.961 58.1572ZM68.9543 45.4388H70.9543H68.9543ZM17.5662 15.7624L18.9804 17.1766V17.1766L17.5662 15.7624ZM43.0031 15.7624L44.4173 14.3481V14.3481L43.0031 15.7624ZM30.2846 6.76904V8.76904V6.76904ZM15.4464 17.8821L14.0322 16.4679L14.0322 16.4679L15.4464 17.8821ZM15.4464 43.319L14.0322 44.7332H14.0322L15.4464 43.319ZM6.45312 30.6006H4.45312H6.45312ZM29.579 19.2965C30.36 18.5155 30.36 17.2492 29.579 16.4681C28.7979 15.6871 27.5316 15.6871 26.7506 16.4681L29.579 19.2965ZM16.1518 27.0668C15.3708 27.8479 15.3708 29.1142 16.1518 29.8953C16.9329 30.6763 18.1992 30.6763 18.9803 29.8953L16.1518 27.0668ZM16.8606 19.2963L18.9804 17.1766L16.152 14.3481L14.0322 16.4679L16.8606 19.2963ZM41.5889 17.1766L58.5468 34.1345L61.3752 31.3061L44.4173 14.3481L41.5889 17.1766ZM58.5468 56.743L56.4271 58.8627L59.2555 61.6912L61.3752 59.5714L58.5468 56.743ZM33.8186 58.8627L16.8606 41.9048L14.0322 44.7332L30.9902 61.6912L33.8186 58.8627ZM56.4271 58.8627C53.3893 61.9005 51.2503 64.0335 49.4175 65.4319C47.6309 66.795 46.3723 67.2703 45.1228 67.2703V71.2703C47.5985 71.2703 49.7014 70.2466 51.8438 68.612C53.9401 67.0126 56.2977 64.649 59.2555 61.6912L56.4271 58.8627ZM30.9902 61.6912C33.948 64.649 36.3056 67.0126 38.4018 68.612C40.5443 70.2466 42.6471 71.2703 45.1228 71.2703V67.2703C43.8734 67.2703 42.6148 66.795 40.8282 65.4319C38.9954 64.0335 36.8563 61.9005 33.8186 58.8627L30.9902 61.6912ZM58.5468 34.1345C61.5846 37.1723 63.7176 39.3113 65.116 41.1441C66.4791 42.9307 66.9543 44.1893 66.9543 45.4388H70.9543C70.9543 42.9631 69.9307 40.8602 68.2961 38.7178C66.6967 36.6215 64.333 34.2639 61.3752 31.3061L58.5468 34.1345ZM61.3752 59.5714C64.333 56.6136 66.6967 54.256 68.2961 52.1598C69.9307 50.0173 70.9543 47.9144 70.9543 45.4388H66.9543C66.9543 46.6882 66.4791 47.9468 65.116 49.7334C63.7176 51.5662 61.5846 53.7052 58.5468 56.743L61.3752 59.5714ZM18.9804 17.1766C22.0181 14.1388 24.1572 12.0058 25.99 10.6074C27.7766 9.24426 29.0352 8.76904 30.2846 8.76904V4.76904C27.8089 4.76904 25.7061 5.79271 23.5636 7.42733C21.4674 9.02673 19.1098 11.3903 16.152 14.3481L18.9804 17.1766ZM44.4173 14.3481C41.4595 11.3903 39.1019 9.02673 37.0056 7.42733C34.8632 5.79271 32.7603 4.76904 30.2846 4.76904V8.76904C31.5341 8.76904 32.7927 9.24426 34.5793 10.6074C36.4121 12.0058 38.5511 14.1388 41.5889 17.1766L44.4173 14.3481ZM14.0322 16.4679C11.0744 19.4257 8.71082 21.7833 7.11141 23.8796C5.47679 26.022 4.45312 28.1249 4.45312 30.6006H8.45312C8.45312 29.3511 8.92835 28.0925 10.2915 26.3059C11.6899 24.4731 13.8229 22.3341 16.8606 19.2963L14.0322 16.4679ZM16.8606 41.9048C13.8229 38.8671 11.6899 36.728 10.2915 34.8952C8.92835 33.1086 8.45312 31.85 8.45312 30.6006H4.45312C4.45312 33.0762 5.47679 35.1791 7.11141 37.3215C8.71082 39.4178 11.0744 41.7754 14.0322 44.7332L16.8606 41.9048ZM26.7506 16.4681L16.1518 27.0668L18.9803 29.8953L29.579 19.2965L26.7506 16.4681ZM51.1278 47.9137C52.1028 48.8887 52.1028 50.4695 51.1278 51.4445L53.9562 54.273C56.4933 51.7359 56.4933 47.6224 53.9562 45.0853L51.1278 47.9137ZM51.1278 51.4445C50.1528 52.4195 48.572 52.4195 47.597 51.4445L44.7686 54.273C47.3057 56.8101 51.4191 56.8101 53.9562 54.273L51.1278 51.4445ZM47.597 51.4445C46.622 50.4695 46.622 48.8887 47.597 47.9137L44.7686 45.0853C42.2315 47.6224 42.2315 51.7359 44.7686 54.273L47.597 51.4445ZM47.597 47.9137C48.572 46.9387 50.1528 46.9387 51.1278 47.9137L53.9562 45.0853C51.4191 42.5482 47.3057 42.5482 44.7686 45.0853L47.597 47.9137Z" fill="#11253E"/>
<path d="M64.2658 22.3505L68.9534 25.5194C68.9534 16.0984 62.1962 8.27767 53.3281 6.76904" stroke="#FEBE10" stroke-width="4" stroke-linecap="round" stroke-linejoin="round"/>
<path d="M11.1443 53.688L6.45673 50.5192C6.45673 59.9402 13.214 67.7609 22.082 69.2695" stroke="#FEBE10" stroke-width="4" stroke-linecap="round" stroke-linejoin="round"/>
</svg>
